<?xml version="1.0" encoding="UTF-8"?>
<svg xmlns="http://www.w3.org/2000/svg" xmlns:xlink="http://www.w3.org/1999/xlink" width="720pt" height="732pt" viewBox="0 0 720 732" version="1.1">
<g id="surface1">
<path style=" stroke:none;fill-rule:nonzero;fill:rgb(0%,0%,0%);fill-opacity:1;" d="M 106.566406 645.273438 L 108.675781 661.679688 L 116.292969 661.679688 L 108.675781 607.1875 L 99.769531 607.1875 L 68.714844 661.679688 L 76.097656 661.679688 L 85.238281 645.273438 Z M 105.863281 639.53125 L 88.636719 639.53125 L 102.816406 614.570312 Z M 105.863281 639.53125 "/>
<path style=" stroke:none;fill-rule:nonzero;fill:rgb(0%,0%,0%);fill-opacity:1;" d="M 607.089844 661.679688 L 631.816406 661.679688 C 637.910156 661.679688 642.597656 659.570312 646.582031 655.117188 C 649.863281 651.71875 651.503906 647.265625 651.503906 642.34375 C 651.503906 637.773438 649.511719 635.195312 644.238281 632.96875 C 650.683594 630.039062 654.433594 624.648438 654.433594 617.96875 C 654.433594 615.15625 653.613281 613.046875 651.738281 610.9375 C 649.160156 608.242188 645.996094 607.1875 640.839844 607.1875 L 618.691406 607.1875 Z M 620.800781 630.625 L 624.433594 613.28125 L 637.910156 613.28125 C 644.238281 613.28125 647.167969 615.273438 647.167969 619.726562 C 647.167969 622.539062 646.113281 625.234375 644.355469 627.226562 C 642.128906 629.570312 639.082031 630.625 634.160156 630.625 Z M 615.410156 655.585938 L 619.511719 636.835938 L 636.386719 636.835938 C 641.542969 636.835938 644.238281 639.179688 644.238281 643.632812 C 644.238281 646.445312 643.417969 649.023438 641.777344 651.25 C 639.433594 654.296875 636.621094 655.585938 632.402344 655.585938 Z M 615.410156 655.585938 "/>
<path style=" stroke:none;fill-rule:nonzero;fill:rgb(0%,0%,0%);fill-opacity:1;" d="M 281.25 84.878906 C 281.015625 80.425781 280.3125 77.613281 278.90625 75.152344 C 275.859375 69.878906 270.46875 67.066406 263.4375 67.066406 C 254.765625 67.066406 247.5 70.582031 241.640625 77.613281 C 235.78125 84.761719 232.03125 95.074219 232.03125 104.449219 C 232.03125 109.605469 233.554688 114.292969 236.367188 117.808594 C 239.765625 122.144531 244.453125 124.253906 251.132812 124.253906 C 259.101562 124.253906 265.898438 121.324219 270.820312 115.933594 C 273.75 112.769531 276.09375 108.667969 278.671875 102.574219 L 271.289062 102.574219 C 269.414062 106.910156 268.242188 109.136719 266.953125 110.894531 C 263.789062 115.347656 258.046875 118.160156 252.1875 118.160156 C 244.453125 118.160156 239.296875 112.066406 239.296875 103.042969 C 239.296875 96.246094 241.523438 88.746094 245.273438 83.121094 C 249.84375 76.324219 255.351562 73.160156 262.265625 73.160156 C 269.765625 73.160156 273.515625 76.792969 274.101562 84.878906 Z M 281.25 84.878906 "/>
<path style=" stroke:none;fill-rule:nonzero;fill:rgb(0%,0%,0%);fill-opacity:1;" d="M 483.03125 381.460938 C 482.328125 381.695312 482.09375 381.695312 481.742188 381.695312 C 479.867188 381.695312 478.929688 380.992188 478.929688 379.46875 C 478.929688 379.234375 478.929688 379 479.046875 378.765625 L 483.851562 356.265625 C 484.203125 354.273438 484.203125 354.273438 484.203125 353.453125 C 484.203125 348.414062 479.046875 345.015625 471.195312 345.015625 C 460.882812 345.015625 454.4375 349.46875 453.03125 357.789062 L 459.359375 357.789062 C 460.0625 355.679688 460.53125 354.625 461.585938 353.570312 C 463.226562 351.929688 466.390625 350.757812 469.554688 350.757812 C 474.125 350.757812 477.523438 352.75 477.523438 355.5625 C 477.523438 355.914062 477.40625 356.382812 477.40625 356.96875 L 477.171875 358.375 C 476.46875 361.421875 475.0625 362.242188 469.554688 362.710938 C 459.59375 363.648438 456.429688 364.351562 452.796875 366.695312 C 448.929688 369.15625 446.585938 373.140625 446.585938 377.476562 C 446.585938 383.453125 450.6875 387.085938 457.367188 387.085938 C 460.0625 387.085938 463.109375 386.5 465.804688 385.5625 C 468.265625 384.742188 469.320312 384.039062 472.484375 381.34375 L 472.484375 382.164062 C 472.484375 385.210938 474.476562 387.085938 478.109375 387.085938 C 478.929688 387.085938 479.164062 387.085938 481.039062 386.617188 C 481.15625 386.5 481.625 386.5 482.09375 386.382812 Z M 474.007812 373.023438 C 473.070312 377.710938 466.507812 381.695312 459.828125 381.695312 C 455.609375 381.695312 453.265625 379.820312 453.265625 376.773438 C 453.265625 374.3125 454.671875 371.851562 456.898438 370.445312 C 458.65625 369.273438 460.882812 368.6875 464.632812 368.21875 C 471.664062 367.28125 472.25 367.164062 475.53125 365.992188 Z M 474.007812 373.023438 "/>
<path style=" stroke:none;fill-rule:nonzero;fill:rgb(0%,0%,0%);fill-opacity:1;" d="M 142.359375 337.59375 L 130.757812 392.085938 L 136.382812 392.085938 L 137.671875 386.226562 C 138.609375 388.570312 139.3125 389.625 140.484375 390.796875 C 142.359375 392.671875 145.523438 393.84375 148.804688 393.84375 C 153.726562 393.84375 159.117188 391.5 162.398438 387.984375 C 167.4375 382.710938 170.71875 374.15625 170.71875 366.421875 C 170.71875 358.101562 165.09375 351.773438 157.476562 351.773438 C 154.546875 351.773438 151.148438 352.710938 148.921875 354 C 147.632812 354.820312 146.695312 355.640625 144.351562 358.101562 L 148.6875 337.59375 Z M 155.367188 357.515625 C 160.875 357.515625 164.15625 361.382812 164.15625 367.828125 C 164.15625 372.164062 162.867188 376.851562 160.757812 380.484375 C 157.59375 385.523438 153.726562 388.101562 148.921875 388.101562 C 143.765625 388.101562 140.601562 384.351562 140.601562 378.375 C 140.601562 373.804688 142.007812 368.648438 144 365.132812 C 146.929688 360.210938 150.914062 357.515625 155.367188 357.515625 Z M 155.367188 357.515625 "/>
<path style=" stroke:none;fill-rule:nonzero;fill:rgb(0%,0%,0%);fill-opacity:1;" d="M 379.851562 622.140625 L 379.851562 620.96875 C 379.96875 619.914062 379.96875 619.09375 379.96875 618.859375 C 379.96875 616.398438 378.679688 613.351562 376.6875 611.359375 C 374.460938 609.015625 371.296875 607.84375 367.078125 607.84375 C 360.398438 607.84375 354.304688 610.65625 350.320312 615.8125 C 346.804688 620.382812 344.226562 628.585938 344.226562 635.5 C 344.226562 639.015625 345.515625 642.648438 347.625 645.226562 C 350.085938 648.507812 353.484375 649.914062 358.289062 649.914062 C 364.382812 649.914062 369.539062 647.6875 372.9375 643.703125 C 374.929688 641.476562 376.101562 638.898438 377.273438 634.679688 L 371.0625 634.679688 C 368.835938 640.773438 364.734375 644.171875 359.34375 644.171875 C 354.1875 644.171875 350.90625 640.421875 350.90625 634.679688 C 350.90625 629.875 352.429688 624.132812 354.890625 620.265625 C 357.703125 615.8125 361.453125 613.585938 366.023438 613.585938 C 370.710938 613.585938 373.640625 616.28125 373.640625 620.5 C 373.640625 620.96875 373.640625 621.4375 373.523438 622.140625 Z M 379.851562 622.140625 "/>
<path style="fill-rule:nonzero;fill:rgb(94.901961%,94.901961%,94.901961%);fill-opacity:1;stroke-width:0.59776;stroke-linecap:butt;stroke-linejoin:miter;stroke:rgb(0%,0%,0%);stroke-opacity:1;stroke-miterlimit:10;" d="M 0.0016875 -0.001375 L 56.693354 -0.001375 L 14.173562 56.693938 Z M 0.0016875 -0.001375 " transform="matrix(7.5,0,0,-7.5,146.6475,578.31)"/>
<path style="fill:none;stroke-width:1.19553;stroke-linecap:butt;stroke-linejoin:miter;stroke:rgb(0%,0%,0%);stroke-opacity:1;stroke-miterlimit:10;" d="M 17.0095 -0.001375 C 17.0095 7.811125 11.689187 14.615812 4.106896 16.502271 " transform="matrix(7.5,0,0,-7.5,146.6475,578.31)"/>
<path style=" stroke:none;fill-rule:nonzero;fill:rgb(69.803922%,100%,69.803922%);fill-opacity:1;" d="M 146.660156 578.320312 L 274.21875 578.320312 C 274.21875 519.726562 234.316406 468.691406 177.449219 454.542969 Z M 146.660156 578.320312 "/>
<path style=" stroke:none;fill-rule:nonzero;fill:rgb(0%,0%,0%);fill-opacity:1;" d="M 202.414062 540.371094 C 198.664062 545.761719 194.328125 551.503906 189.992188 551.503906 C 184.835938 551.503906 183.546875 544.355469 183.546875 540.019531 C 183.546875 534.511719 185.304688 525.488281 192.21875 525.488281 C 197.84375 525.488281 199.835938 531.933594 202.414062 540.371094 Z M 214.015625 521.152344 L 206.984375 533.222656 L 206.28125 533.105469 C 205.109375 529.003906 202.53125 521.152344 195.96875 521.152344 C 184.601562 521.152344 178.625 533.222656 178.625 543.535156 C 178.625 548.691406 180.5 557.128906 186.476562 557.128906 C 191.046875 557.128906 195.5 553.378906 198.195312 550.097656 L 203 544.238281 L 203.820312 544.355469 L 207.335938 554.433594 C 207.6875 556.308594 209.5625 557.714844 211.320312 557.714844 C 213.898438 557.714844 217.53125 554.550781 222.570312 550.566406 L 222.101562 549.042969 L 221.398438 549.042969 C 219.289062 550.566406 216.710938 552.441406 214.835938 552.441406 C 211.203125 552.441406 208.742188 542.949219 207.453125 538.496094 C 207.453125 538.378906 214.367188 528.066406 217.882812 522.910156 Z M 214.015625 521.152344 "/>
<path style="fill:none;stroke-width:1.19553;stroke-linecap:butt;stroke-linejoin:miter;stroke:rgb(0%,0%,0%);stroke-opacity:1;stroke-miterlimit:10;" d="M 46.497521 13.611646 C 42.212625 10.401229 39.685021 5.358 39.685021 -0.001375 " transform="matrix(7.5,0,0,-7.5,146.6475,578.31)"/>
<path style=" stroke:none;fill-rule:nonzero;fill:rgb(69.803922%,100%,69.803922%);fill-opacity:1;" d="M 571.847656 578.320312 L 495.378906 476.222656 C 463.242188 500.300781 444.285156 538.125 444.285156 578.320312 Z M 571.847656 578.320312 "/>
<path style=" stroke:none;fill-rule:nonzero;fill:rgb(0%,0%,0%);fill-opacity:1;" d="M 490.019531 525.90625 L 490.136719 524.96875 C 494.941406 523.09375 499.277344 517.820312 499.277344 512.195312 C 499.277344 506.570312 494.707031 502.117188 489.082031 502.117188 C 481.230469 502.117188 475.839844 506.335938 473.027344 512.429688 C 471.386719 515.945312 470.800781 521.6875 470.683594 525.554688 C 470.097656 539.734375 470.332031 554.03125 469.980469 568.210938 L 470.917969 569.382812 L 476.542969 566.921875 C 476.074219 557.546875 475.839844 548.171875 475.839844 538.679688 C 475.839844 524.851562 475.488281 520.046875 477.128906 513.484375 C 478.183594 508.914062 480.878906 505.632812 485.917969 505.632812 C 490.371094 505.632812 493.417969 509.734375 493.417969 513.835938 C 493.417969 521.804688 487.441406 525.4375 480.878906 525.4375 L 480.644531 528.132812 C 482.285156 527.898438 483.808594 527.898438 485.449219 527.898438 C 492.714844 527.898438 497.753906 532.234375 497.753906 539.734375 C 497.753906 545.242188 495.058594 552.742188 488.730469 552.742188 C 485.917969 552.742188 483.339844 550.398438 483.339844 547.585938 C 483.339844 547.351562 483.339844 547.117188 483.339844 547 L 482.402344 546.53125 L 478.769531 551.6875 C 480.292969 554.382812 482.871094 555.4375 485.800781 555.4375 C 495.410156 555.4375 504.082031 549.460938 504.082031 539.148438 C 504.082031 535.515625 502.558594 531.882812 500.097656 529.1875 C 497.753906 526.84375 493.652344 526.023438 490.019531 525.90625 Z M 490.019531 525.90625 "/>
<path style="fill:none;stroke-width:1.19553;stroke-linecap:butt;stroke-linejoin:miter;stroke:rgb(0%,0%,0%);stroke-opacity:1;stroke-miterlimit:10;" d="M 10.064187 40.189771 C 15.025125 38.955396 20.278771 40.017896 24.368875 43.080396 " transform="matrix(7.5,0,0,-7.5,146.6475,578.31)"/>
<path style=" stroke:none;fill-rule:nonzero;fill:rgb(69.803922%,100%,69.803922%);fill-opacity:1;" d="M 252.949219 153.105469 L 222.128906 276.886719 C 259.335938 286.144531 298.738281 278.175781 329.414062 255.207031 Z M 252.949219 153.105469 "/>
<path style=" stroke:none;fill-rule:nonzero;fill:rgb(0%,0%,0%);fill-opacity:1;" d="M 288.1875 221.816406 L 287.25 222.167969 C 284.4375 229.316406 278.34375 241.269531 273.421875 250.292969 L 272.835938 250.058594 C 272.835938 239.160156 271.078125 221.933594 259.945312 221.933594 C 254.203125 221.933594 251.039062 224.394531 247.289062 230.253906 L 248.460938 231.074219 L 250.21875 229.082031 C 251.742188 227.324219 254.671875 226.855469 256.664062 226.855469 C 258.65625 226.855469 260.53125 227.792969 261.9375 229.199219 C 267.445312 234.589844 269.671875 254.042969 269.671875 256.972656 L 265.804688 269.277344 C 266.976562 270.332031 268.382812 271.269531 269.90625 271.738281 L 272.484375 269.863281 C 272.835938 265.996094 273.070312 261.777344 273.070312 257.910156 C 273.070312 257.324219 273.070312 256.738281 273.070312 256.152344 L 274.359375 252.988281 C 279.984375 242.910156 286.664062 233.652344 292.640625 223.808594 Z M 288.1875 221.816406 "/>
<path style="fill:none;stroke-width:1.19553;stroke-linecap:butt;stroke-linejoin:miter;stroke:rgb(0%,0%,0%);stroke-opacity:1;stroke-miterlimit:10;" d="M 0.0016875 -0.001375 L 56.693354 -0.001375 L 14.173562 56.693938 Z M 0.0016875 -0.001375 " transform="matrix(7.5,0,0,-7.5,146.6475,578.31)"/>
</g>
</svg>
